<svg width="133" height="31" viewBox="0 0 133 31" fill="none" xmlns="http://www.w3.org/2000/svg">
<path fill-rule="evenodd" clip-rule="evenodd" d="M122 21C127.523 21 132 16.5228 132 11C132 5.47715 127.523 1 122 1C116.477 1 112 5.47715 112 11C112 16.5228 116.477 21 122 21ZM122 22C128.075 22 133 17.0751 133 11C133 4.92487 128.075 0 122 0C115.925 0 111 4.92487 111 11C111 17.0751 115.925 22 122 22Z" fill="#1E1E1E"/>
<path fill-rule="evenodd" clip-rule="evenodd" d="M122 19C126.418 19 130 15.4183 130 11C130 6.58172 126.418 3 122 3C117.582 3 114 6.58172 114 11C114 15.4183 117.582 19 122 19ZM122 20C126.971 20 131 15.9706 131 11C131 6.02944 126.971 2 122 2C117.029 2 113 6.02944 113 11C113 15.9706 117.029 20 122 20Z" fill="#1E1E1E"/>
<path d="M117.773 15.9999V5.81812H121.979C122.742 5.81812 123.4 5.95566 123.953 6.23076C124.51 6.50254 124.939 6.89364 125.241 7.40405C125.542 7.91115 125.693 8.51272 125.693 9.20874C125.693 9.91471 125.539 10.5146 125.231 11.0085C124.923 11.499 124.485 11.8735 123.918 12.132C123.352 12.3872 122.68 12.5148 121.905 12.5148H119.245V10.5759H121.447C121.819 10.5759 122.129 10.5279 122.377 10.4318C122.629 10.3323 122.82 10.1832 122.949 9.98431C123.078 9.78213 123.143 9.52361 123.143 9.20874C123.143 8.89387 123.078 8.63369 122.949 8.4282C122.82 8.21939 122.629 8.06362 122.377 7.96087C122.125 7.85481 121.815 7.80178 121.447 7.80178H120.234V15.9999H117.773ZM123.506 11.3465L126.041 15.9999H123.357L120.871 11.3465H123.506Z" fill="#1E1E1E"/>
<path d="M104.315 8.18186V13.2955H90.5508V8.18186H104.315ZM93.4343 2.95459H100.38V23.1392C100.38 23.5654 100.447 23.911 100.579 24.1762C100.721 24.4319 100.925 24.6165 101.19 24.7302C101.455 24.8343 101.772 24.8864 102.142 24.8864C102.407 24.8864 102.686 24.8627 102.98 24.8154C103.283 24.7586 103.51 24.7112 103.662 24.6733L104.713 29.6875C104.381 29.7822 103.913 29.9006 103.306 30.0427C102.71 30.1847 101.995 30.2747 101.162 30.3125C99.5328 30.3883 98.136 30.1989 96.9712 29.7444C95.8159 29.2803 94.9305 28.5607 94.315 27.5853C93.7089 26.6099 93.4154 25.3836 93.4343 23.9063V2.95459Z" fill="#1E1E1E"/>
<path d="M78.0955 30.4119C75.8133 30.4119 73.8436 29.9621 72.1864 29.0625C70.5387 28.1534 69.2698 26.8608 68.3796 25.1846C67.4989 23.499 67.0586 21.4962 67.0586 19.1761C67.0586 16.9223 67.5037 14.9526 68.3938 13.267C69.284 11.5719 70.5387 10.2557 72.158 9.31816C73.7773 8.37119 75.6855 7.89771 77.8825 7.89771C79.4355 7.89771 80.8559 8.13918 82.1438 8.62214C83.4317 9.10509 84.5444 9.82005 85.4819 10.767C86.4194 11.714 87.1486 12.8835 87.6694 14.2755C88.1902 15.6581 88.4506 17.2443 88.4506 19.0341V20.767H69.4876V16.7329H81.9876C81.9781 15.9943 81.8029 15.3362 81.462 14.7585C81.1211 14.1808 80.6523 13.731 80.0557 13.4091C79.4686 13.0776 78.7915 12.9119 78.0245 12.9119C77.248 12.9119 76.552 13.0871 75.9364 13.4375C75.3209 13.7784 74.8332 14.2471 74.4734 14.8437C74.1135 15.4308 73.9241 16.0985 73.9052 16.8466V20.9517C73.9052 21.8418 74.0804 22.6231 74.4307 23.2954C74.7811 23.9583 75.2783 24.4744 75.9222 24.8437C76.5662 25.213 77.3332 25.3977 78.2234 25.3977C78.8389 25.3977 79.3976 25.3125 79.8995 25.142C80.4014 24.9716 80.8323 24.7206 81.1921 24.3892C81.552 24.0577 81.8218 23.6505 82.0018 23.1676L88.3796 23.3522C88.1145 24.7822 87.5321 26.0274 86.6325 27.088C85.7423 28.1392 84.5728 28.9583 83.1239 29.5454C81.6751 30.1231 79.9989 30.4119 78.0955 30.4119Z" fill="#1E1E1E"/>
<path d="M52.1953 30V8.18184H58.9425V12.1591H59.1697C59.5675 10.7197 60.2161 9.64964 61.1158 8.94888C62.0154 8.23866 63.0618 7.88354 64.255 7.88354C64.5769 7.88354 64.9084 7.90722 65.2493 7.95457C65.5902 7.99245 65.9074 8.054 66.201 8.13923V14.1762C65.8696 14.0625 65.4339 13.9726 64.8942 13.9063C64.3639 13.84 63.8904 13.8068 63.4737 13.8068C62.6499 13.8068 61.9065 13.9915 61.2436 14.3608C60.5902 14.7207 60.0741 15.2273 59.6953 15.8807C59.326 16.5246 59.1413 17.2822 59.1413 18.1534V30H52.1953Z" fill="#1E1E1E"/>
<path d="M40.8423 20.5825V8.18188H47.7741V30.0001H41.1548V25.9376H40.9276C40.4446 27.2728 39.6207 28.3334 38.456 29.1194C37.3007 29.8959 35.9039 30.2842 34.2656 30.2842C32.7789 30.2842 31.4721 29.9432 30.3452 29.2614C29.2183 28.5796 28.3423 27.6279 27.7173 26.4063C27.0923 25.1753 26.7751 23.7359 26.7656 22.0881V8.18188H33.7116V20.7245C33.7211 21.9082 34.0336 22.841 34.6491 23.5228C35.2647 24.2046 36.1027 24.5455 37.1634 24.5455C37.8546 24.5455 38.4749 24.394 39.0241 24.091C39.5829 23.7785 40.0232 23.3287 40.3452 22.7415C40.6766 22.145 40.8423 21.4253 40.8423 20.5825Z" fill="#1E1E1E"/>
<path d="M0.203125 30.0001V0.90918H12.3338C14.5118 0.90918 16.3348 1.21694 17.8026 1.83247C19.2798 2.448 20.3878 3.30975 21.1264 4.4177C21.8745 5.52566 22.2486 6.8088 22.2486 8.26713C22.2486 9.37509 22.0166 10.3647 21.5526 11.2359C21.0885 12.0976 20.4493 12.8126 19.6349 13.3808C18.8205 13.949 17.8783 14.3467 16.8082 14.574V14.858C17.9825 14.9149 19.0668 15.2321 20.0611 15.8097C21.0649 16.3874 21.8698 17.1923 22.4759 18.2245C23.0819 19.2472 23.3849 20.4594 23.3849 21.8609C23.3849 23.4234 22.9872 24.8202 22.1918 26.0512C21.3963 27.2728 20.2457 28.2387 18.7401 28.949C17.2344 29.6497 15.4067 30.0001 13.2571 30.0001H0.203125ZM7.23438 24.3325H11.581C13.1056 24.3325 14.2277 24.0436 14.9474 23.466C15.6766 22.8883 16.0412 22.0834 16.0412 21.0512C16.0412 20.3031 15.866 19.6592 15.5156 19.1194C15.1652 18.5702 14.6681 18.1488 14.0241 17.8552C13.3802 17.5522 12.6084 17.4007 11.7088 17.4007H7.23438V24.3325ZM7.23438 12.8694H11.1264C11.8935 12.8694 12.5753 12.7416 13.1719 12.4859C13.7685 12.2302 14.2325 11.8609 14.5639 11.3779C14.9048 10.895 15.0753 10.3126 15.0753 9.63077C15.0753 8.65539 14.7296 7.88835 14.0384 7.32963C13.3471 6.77092 12.4143 6.49157 11.2401 6.49157H7.23438V12.8694Z" fill="#1E1E1E"/>
</svg>
