<svg width="132" height="30" viewBox="0 0 132 30" fill="none" xmlns="http://www.w3.org/2000/svg">
<path fill-rule="evenodd" clip-rule="evenodd" d="M121.066 20.7158C126.556 20.7158 131.006 16.2992 131.006 10.8511C131.006 5.40303 126.556 0.986466 121.066 0.986466C115.576 0.986466 111.126 5.40303 111.126 10.8511C111.126 16.2992 115.576 20.7158 121.066 20.7158ZM121.066 21.7023C127.105 21.7023 132 16.844 132 10.8511C132 4.85822 127.105 0 121.066 0C115.027 0 110.132 4.85822 110.132 10.8511C110.132 16.844 115.027 21.7023 121.066 21.7023Z" fill="#E5E342"/>
<path fill-rule="evenodd" clip-rule="evenodd" d="M121.066 18.7431C125.458 18.7431 129.018 15.2098 129.018 10.8513C129.018 6.49286 125.458 2.95961 121.066 2.95961C116.674 2.95961 113.114 6.49286 113.114 10.8513C113.114 15.2098 116.674 18.7431 121.066 18.7431ZM121.066 19.7295C126.007 19.7295 130.012 15.7546 130.012 10.8513C130.012 5.94805 126.007 1.97314 121.066 1.97314C116.125 1.97314 112.12 5.94805 112.12 10.8513C112.12 15.7546 116.125 19.7295 121.066 19.7295Z" fill="#E5E342"/>
<path d="M116.865 15.7838V5.73975H121.046C121.803 5.73975 122.457 5.87543 123.007 6.1468C123.561 6.41491 123.988 6.80071 124.287 7.30422C124.587 7.80446 124.737 8.39788 124.737 9.08448C124.737 9.7809 124.584 10.3727 124.277 10.8598C123.971 11.3437 123.536 11.7132 122.973 11.9682C122.409 12.22 121.742 12.3458 120.971 12.3458H118.328V10.4332H120.517C120.886 10.4332 121.194 10.3858 121.441 10.2909C121.691 10.1929 121.881 10.0457 122.009 9.84956C122.138 9.65011 122.202 9.39509 122.202 9.08448C122.202 8.77388 122.138 8.51722 122.009 8.31451C121.881 8.10853 121.691 7.95486 121.441 7.8535C121.19 7.74888 120.882 7.69657 120.517 7.69657H119.311V15.7838H116.865ZM122.563 11.1933L125.083 15.7838H122.414L119.944 11.1933H122.563Z" fill="#E5E342"/>
<path d="M103.487 8.07108V13.1155H89.8055V8.07108H103.487ZM92.6717 2.91455H99.5761V22.826C99.5761 23.2464 99.642 23.5874 99.7737 23.8489C99.9149 24.1012 100.117 24.2833 100.381 24.3954C100.644 24.4982 100.96 24.5496 101.327 24.5496C101.59 24.5496 101.868 24.5262 102.16 24.4795C102.461 24.4234 102.687 24.3767 102.838 24.3394L103.882 29.2857C103.553 29.3791 103.087 29.4959 102.485 29.636C101.892 29.7761 101.181 29.8649 100.353 29.9023C98.7336 29.977 97.3452 29.7902 96.1874 29.3418C95.0391 28.884 94.159 28.1741 93.5471 27.2119C92.9447 26.2497 92.6529 25.04 92.6717 23.5827V2.91455Z" fill="#1E1E1E"/>
<path d="M77.425 30C75.1565 30 73.1986 29.5563 71.5514 28.6689C69.9135 27.7721 68.6522 26.497 67.7674 24.8435C66.892 23.1807 66.4543 21.205 66.4543 18.9163C66.4543 16.693 66.8967 14.75 67.7815 13.0872C68.6663 11.415 69.9135 10.1166 71.5231 9.19176C73.1327 8.2576 75.0294 7.79053 77.2132 7.79053C78.7569 7.79053 80.1688 8.02874 81.449 8.50515C82.7291 8.98157 83.8352 9.68686 84.767 10.621C85.6989 11.5552 86.4237 12.7088 86.9414 14.0821C87.4591 15.4459 87.718 17.0106 87.718 18.7762V20.4857H68.8687V16.5062H81.2937C81.2843 15.7775 81.1101 15.1283 80.7713 14.5585C80.4324 13.9886 79.9665 13.5449 79.3734 13.2273C78.7898 12.9003 78.1168 12.7369 77.3544 12.7369C76.5825 12.7369 75.8907 12.9097 75.2789 13.2553C74.667 13.5916 74.1823 14.054 73.8246 14.6425C73.4669 15.2217 73.2786 15.8803 73.2598 16.6183V20.6678C73.2598 21.5459 73.4339 22.3166 73.7822 22.9799C74.1305 23.6338 74.6247 24.1429 75.2647 24.5072C75.9048 24.8715 76.6673 25.0537 77.5521 25.0537C78.1639 25.0537 78.7193 24.9696 79.2181 24.8015C79.717 24.6333 80.1453 24.3858 80.503 24.0588C80.8607 23.7319 81.1289 23.3302 81.3078 22.8538L87.6474 23.0359C87.3838 24.4465 86.8049 25.6749 85.9107 26.7212C85.0259 27.7581 83.8634 28.5661 82.4232 29.1453C80.9831 29.7151 79.317 30 77.425 30Z" fill="#1E1E1E"/>
<path d="M51.6802 29.594V8.07111H58.3869V11.9946H58.6128C59.0081 10.5746 59.6529 9.51905 60.5471 8.82778C61.4414 8.12716 62.4815 7.77686 63.6675 7.77686C63.9875 7.77686 64.317 7.80021 64.6559 7.84692C64.9947 7.88428 65.31 7.945 65.6018 8.02908V13.9843C65.2724 13.8722 64.8394 13.7835 64.3029 13.7181C63.7757 13.6527 63.3051 13.62 62.8909 13.62C62.072 13.62 61.3331 13.8021 60.6742 14.1665C60.0247 14.5214 59.5117 15.0212 59.1352 15.6658C58.7681 16.301 58.5845 17.0483 58.5845 17.9078V29.594H51.6802Z" fill="#1E1E1E"/>
<path d="M40.3953 20.304V8.07129H47.2856V29.5942H40.706V25.5867H40.4801C40 26.9038 39.1811 27.9501 38.0233 28.7254C36.8749 29.4914 35.4865 29.8744 33.8581 29.8744C32.3803 29.8744 31.0813 29.5381 29.9612 28.8656C28.841 28.193 27.9704 27.2541 27.3491 26.0491C26.7279 24.8347 26.4125 23.4148 26.4031 21.7893V8.07129H33.3074V20.4442C33.3169 21.6119 33.6275 22.532 34.2393 23.2046C34.8512 23.8772 35.6842 24.2135 36.7384 24.2135C37.4256 24.2135 38.0421 24.064 38.5881 23.7651C39.1434 23.4568 39.5811 23.0131 39.9012 22.4339C40.2306 21.8454 40.3953 21.1354 40.3953 20.304Z" fill="#1E1E1E"/>
<path d="M0 29.5942V0.896973H12.0579C14.2228 0.896973 16.0348 1.20057 17.4938 1.80777C18.9622 2.41497 20.0635 3.26505 20.7977 4.35801C21.5414 5.45097 21.9132 6.71675 21.9132 8.15535C21.9132 9.24831 21.6826 10.2245 21.2213 11.0839C20.7601 11.934 20.1247 12.6393 19.3152 13.1998C18.5057 13.7603 17.5691 14.1526 16.5055 14.3768V14.6571C17.6727 14.7131 18.7504 15.0261 19.7388 15.5959C20.7366 16.1657 21.5367 16.9598 22.1391 17.978C22.7415 18.9869 23.0427 20.1826 23.0427 21.5651C23.0427 23.1065 22.6474 24.4844 21.8567 25.6988C21.066 26.9038 19.9223 27.8567 18.4257 28.5573C16.9291 29.2485 15.1124 29.5942 12.9756 29.5942H0ZM6.98906 24.0033H11.3096C12.825 24.0033 13.9405 23.7184 14.6558 23.1485C15.3806 22.5787 15.743 21.7847 15.743 20.7664C15.743 20.0284 15.5689 19.3932 15.2206 18.8608C14.8723 18.3189 14.3782 17.9032 13.7381 17.6137C13.098 17.3147 12.3309 17.1653 11.4366 17.1653H6.98906V24.0033ZM6.98906 12.6953H10.8577C11.6202 12.6953 12.2979 12.5692 12.8909 12.317C13.4839 12.0648 13.9452 11.7005 14.2746 11.224C14.6135 10.7476 14.7829 10.1731 14.7829 9.50053C14.7829 8.53835 14.4393 7.78169 13.7522 7.23054C13.0651 6.67939 12.1379 6.40381 10.9707 6.40381H6.98906V12.6953Z" fill="#1E1E1E"/>
</svg>
