<svg width="18" height="18" viewBox="0 0 18 18" fill="none" xmlns="http://www.w3.org/2000/svg">
<g clip-path="url(#clip0_702_2063)">
<path d="M3.375 4.78125H14.625M6.1875 4.78125V3.51562C6.1875 1.96232 7.44669 0.703125 9 0.703125C10.5533 0.703125 11.8125 1.96232 11.8125 3.51562V4.78125M11.8125 7.59375C11.8125 9.14706 10.5533 10.4062 9 10.4062C7.44669 10.4062 6.1875 9.14706 6.1875 7.59375" stroke="white" stroke-width="1.5" stroke-miterlimit="10" stroke-linecap="round" stroke-linejoin="round"/>
<path d="M14.625 4.78125L16.0201 15.7131C16.0275 15.772 16.0313 15.8313 16.0312 15.8906C16.0312 16.6673 15.4016 17.2969 14.625 17.2969H3.375C2.59836 17.2969 1.96875 16.6673 1.96875 15.8906C1.96875 15.8305 1.97251 15.7712 1.97986 15.7131L3.375 4.78125" stroke="white" stroke-width="1.5" stroke-miterlimit="10" stroke-linecap="round" stroke-linejoin="round"/>
</g>
<defs>
<clipPath id="clip0_702_2063">
<rect width="18" height="18" fill="white"/>
</clipPath>
</defs>
</svg>
