<svg width="18" height="18" viewBox="0 0 18 18" fill="none" xmlns="http://www.w3.org/2000/svg">
<path d="M11.7135 8.34627C12.8653 7.50628 13.6153 6.14686 13.6153 4.61538C13.6153 2.07046 11.5448 0 8.99989 0C6.45497 0 4.38451 2.07046 4.38451 4.61538C4.38451 6.14686 5.1345 7.50628 6.28629 8.34627C3.42316 9.44191 1.38452 12.2179 1.38452 15.4615C1.38452 16.8613 2.52327 18 3.92298 18H14.0768C15.4765 18 16.6153 16.8613 16.6153 15.4615C16.6153 12.2179 14.5766 9.44191 11.7135 8.34627ZM5.76914 4.61538C5.76914 2.83395 7.21845 1.38463 8.99989 1.38463C10.7813 1.38463 12.2306 2.83395 12.2306 4.61538C12.2306 6.39682 10.7813 7.84617 8.99989 7.84617C7.21845 7.84617 5.76914 6.39682 5.76914 4.61538ZM14.0768 16.6154H3.92298C3.28676 16.6154 2.76915 16.0978 2.76915 15.4615C2.76915 12.0258 5.56421 9.23073 8.99993 9.23073C12.4356 9.23073 15.2307 12.0258 15.2307 15.4615C15.2307 16.0978 14.7131 16.6154 14.0768 16.6154Z" fill="white"/>
</svg>
