<svg width="18" height="18" viewBox="0 0 18 18" fill="none" xmlns="http://www.w3.org/2000/svg">
<path d="M8.20349 1.44849C6.41514 1.45148 4.70089 2.16323 3.43633 3.42779C2.17178 4.69235 1.46003 6.40659 1.45703 8.19494C1.45853 9.9848 2.16943 11.7011 3.43399 12.9678C4.69855 14.2345 6.41364 14.9482 8.20349 14.9527C9.79089 14.9527 11.2536 14.3943 12.4101 13.4702L16.0578 17.1182C16.2002 17.2505 16.3882 17.3225 16.5825 17.3191C16.7768 17.3157 16.9622 17.2372 17.0998 17.0999C17.2374 16.9627 17.3165 16.7775 17.3204 16.5832C17.3243 16.3889 17.2528 16.2007 17.1208 16.058L13.4731 12.4072C14.4325 11.214 14.9556 9.72887 14.9556 8.19778C14.9556 4.47872 11.9225 1.44849 8.20349 1.44849ZM8.20349 2.95085C11.1118 2.95085 13.4533 5.28943 13.4533 8.19494C13.4533 11.1005 11.1118 13.4532 8.20349 13.4532C5.29514 13.4532 2.95656 11.109 2.95656 8.20061C2.95656 5.29227 5.29514 2.95085 8.20349 2.95085Z" fill="white"/>
</svg>
