<svg width="26" height="26" viewBox="0 0 26 26" fill="none" xmlns="http://www.w3.org/2000/svg">
<rect width="26" height="26" rx="5" fill="#E5E342"/>
<g clip-path="url(#clip0_702_415)">
<path d="M15.625 6H10.375C7.95913 6 6 7.95913 6 10.375V15.625C6 18.0409 7.95913 20 10.375 20H15.625C18.0409 20 20 18.0409 20 15.625V10.375C20 7.95913 18.0409 6 15.625 6ZM18.6875 15.625C18.6875 17.3138 17.3138 18.6875 15.625 18.6875H10.375C8.68625 18.6875 7.3125 17.3138 7.3125 15.625V10.375C7.3125 8.68625 8.68625 7.3125 10.375 7.3125H15.625C17.3138 7.3125 18.6875 8.68625 18.6875 10.375V15.625Z" fill="#1E1E1E"/>
<path d="M13 9.5C11.0671 9.5 9.5 11.0671 9.5 13C9.5 14.9329 11.0671 16.5 13 16.5C14.9329 16.5 16.5 14.9329 16.5 13C16.5 11.0671 14.9329 9.5 13 9.5ZM13 15.1875C11.7943 15.1875 10.8125 14.2057 10.8125 13C10.8125 11.7934 11.7943 10.8125 13 10.8125C14.2057 10.8125 15.1875 11.7934 15.1875 13C15.1875 14.2057 14.2057 15.1875 13 15.1875Z" fill="#1E1E1E"/>
<path d="M16.7625 9.70375C17.0201 9.70375 17.2289 9.49494 17.2289 9.23737C17.2289 8.9798 17.0201 8.771 16.7625 8.771C16.5049 8.771 16.2961 8.9798 16.2961 9.23737C16.2961 9.49494 16.5049 9.70375 16.7625 9.70375Z" fill="#1E1E1E"/>
</g>
<defs>
<clipPath id="clip0_702_415">
<rect width="14" height="14" fill="white" transform="translate(6 6)"/>
</clipPath>
</defs>
</svg>
