<svg width="200" height="45" viewBox="0 0 200 45" fill="none" xmlns="http://www.w3.org/2000/svg">
<path fill-rule="evenodd" clip-rule="evenodd" d="M183.434 31.0729C191.751 31.0729 198.494 24.4482 198.494 16.2763C198.494 8.10434 191.751 1.47966 183.434 1.47966C175.116 1.47966 168.373 8.10434 168.373 16.2763C168.373 24.4482 175.116 31.0729 183.434 31.0729ZM183.434 32.5526C192.583 32.5526 200 25.2654 200 16.2763C200 7.28714 192.583 0 183.434 0C174.284 0 166.867 7.28714 166.867 16.2763C166.867 25.2654 174.284 32.5526 183.434 32.5526Z" fill="#E5E342"/>
<path fill-rule="evenodd" clip-rule="evenodd" d="M183.433 28.1137C190.087 28.1137 195.482 22.814 195.482 16.2764C195.482 9.73888 190.087 4.43914 183.433 4.43914C176.779 4.43914 171.385 9.73888 171.385 16.2764C171.385 22.814 176.779 28.1137 183.433 28.1137ZM183.433 29.5934C190.919 29.5934 196.988 23.6312 196.988 16.2764C196.988 8.92168 190.919 2.95947 183.433 2.95947C175.947 2.95947 169.879 8.92168 169.879 16.2764C169.879 23.6312 175.947 29.5934 183.433 29.5934Z" fill="#E5E342"/>
<path d="M177.064 23.675V8.60938H183.399C184.547 8.60938 185.538 8.8129 186.371 9.21995C187.21 9.62209 187.856 10.2008 188.311 10.956C188.765 11.7064 188.992 12.5965 188.992 13.6264C188.992 14.6709 188.76 15.5586 188.296 16.2893C187.831 17.0152 187.172 17.5693 186.319 17.9518C185.465 18.3295 184.455 18.5183 183.287 18.5183H179.281V15.6493H182.598C183.157 15.6493 183.623 15.5782 183.998 15.436C184.377 15.2889 184.664 15.0682 184.859 14.7739C185.054 14.4748 185.151 14.0923 185.151 13.6264C185.151 13.1605 185.054 12.7755 184.859 12.4714C184.664 12.1625 184.377 11.932 183.998 11.7799C183.618 11.623 183.152 11.5445 182.598 11.5445H180.771V23.675H177.064ZM185.697 16.7896L189.516 23.675H185.473L181.729 16.7896H185.697Z" fill="#E5E342"/>
<path d="M156.798 12.1062V19.6726H136.068V12.1062H156.798ZM140.411 4.37158H150.872V34.2381C150.872 34.8686 150.972 35.38 151.172 35.7724C151.386 36.1507 151.692 36.4239 152.091 36.5921C152.491 36.7462 152.969 36.8233 153.525 36.8233C153.924 36.8233 154.345 36.7882 154.787 36.7182C155.243 36.6341 155.586 36.5641 155.814 36.508L157.397 43.9273C156.898 44.0675 156.192 44.2426 155.279 44.4528C154.38 44.663 153.304 44.7961 152.049 44.8521C149.596 44.9642 147.492 44.684 145.738 44.0114C143.998 43.3248 142.664 42.2599 141.737 40.8167C140.825 39.3735 140.383 37.5589 140.411 35.373V4.37158Z" fill="white"/>
<path d="M117.313 44.9995C113.875 44.9995 110.909 44.3339 108.413 43.0028C105.932 41.6576 104.021 39.745 102.68 37.2649C101.354 34.7707 100.69 31.8072 100.69 28.3743C100.69 25.0394 101.361 22.1249 102.701 19.6308C104.042 17.1227 105.932 15.175 108.37 13.7878C110.809 12.3866 113.683 11.686 116.992 11.686C119.331 11.686 121.47 12.0433 123.409 12.7579C125.349 13.4726 127.025 14.5305 128.437 15.9317C129.849 17.3329 130.947 19.0633 131.731 21.1231C132.516 23.1688 132.908 25.5158 132.908 28.1641V30.7283H104.349V24.7592H123.174C123.16 23.6663 122.896 22.6924 122.383 21.8377C121.869 20.983 121.163 20.3174 120.265 19.841C119.38 19.3506 118.361 19.1054 117.206 19.1054C116.036 19.1054 114.988 19.3646 114.061 19.883C113.134 20.3875 112.399 21.0811 111.857 21.9638C111.315 22.8325 111.03 23.8204 111.002 24.9273V31.0015C111.002 32.3186 111.266 33.4746 111.793 34.4695C112.321 35.4503 113.07 36.214 114.039 36.7604C115.009 37.3069 116.164 37.5801 117.505 37.5801C118.432 37.5801 119.274 37.454 120.029 37.2018C120.785 36.9496 121.434 36.5783 121.976 36.0879C122.518 35.5974 122.925 34.9949 123.196 34.2803L132.801 34.5535C132.401 36.6694 131.524 38.5119 130.17 40.0813C128.829 41.6366 127.068 42.8486 124.886 43.7174C122.703 44.5721 120.179 44.9995 117.313 44.9995Z" fill="white"/>
<path d="M78.3027 44.39V12.1064H88.4642V17.9914H88.8065C89.4055 15.8616 90.3825 14.2783 91.7373 13.2414C93.0922 12.1905 94.6681 11.665 96.4651 11.665C96.95 11.665 97.4492 11.7001 97.9626 11.7701C98.476 11.8262 98.9538 11.9173 99.3959 12.0434V20.976C98.8967 20.8078 98.2407 20.6747 97.4278 20.5766C96.6291 20.4786 95.916 20.4295 95.2885 20.4295C94.0477 20.4295 92.9282 20.7028 91.9299 21.2492C90.9458 21.7817 90.1685 22.5313 89.5981 23.4981C89.0419 24.4509 88.7637 25.5719 88.7637 26.861V44.39H78.3027Z" fill="white"/>
<path d="M61.204 30.4556V12.1069H71.6437V44.3905H61.6747V38.3794H61.3324C60.605 40.355 59.3643 41.9244 57.6101 43.0874C55.8701 44.2364 53.7665 44.8108 51.2992 44.8108C49.0601 44.8108 47.092 44.3064 45.3949 43.2976C43.6977 42.2887 42.3785 40.8805 41.4372 39.0729C40.4959 37.2514 40.0182 35.1216 40.0039 32.6835V12.1069H50.4649V30.6658C50.4792 32.4173 50.9498 33.7974 51.8768 34.8063C52.8039 35.8152 54.066 36.3196 55.6633 36.3196C56.7045 36.3196 57.6386 36.0954 58.4658 35.647C59.3072 35.1846 59.9704 34.5191 60.4553 33.6503C60.9545 32.7676 61.204 31.7027 61.204 30.4556Z" fill="white"/>
<path d="M0 44.39V1.34521H18.2693C21.5495 1.34521 24.2949 1.8006 26.5055 2.71138C28.7304 3.62216 30.399 4.89725 31.5114 6.53665C32.6381 8.17605 33.2014 10.0747 33.2014 12.2325C33.2014 13.8719 32.852 15.3362 32.1532 16.6253C31.4544 17.9003 30.4917 18.9582 29.2652 19.799C28.0387 20.6397 26.6196 21.2282 25.008 21.5645V21.9848C26.7765 22.0689 28.4095 22.5383 29.907 23.393C31.4187 24.2478 32.631 25.4388 33.5437 26.9661C34.4565 28.4794 34.9128 30.2729 34.9128 32.3467C34.9128 34.6586 34.3138 36.7254 33.1159 38.547C31.9179 40.3545 30.1851 41.7837 27.9174 42.8346C25.6498 43.8715 22.8973 44.39 19.6599 44.39H0ZM10.5894 36.0038H17.1355C19.4317 36.0038 21.1217 35.5764 22.2056 34.7217C23.3037 33.867 23.8528 32.676 23.8528 31.1487C23.8528 30.0417 23.589 29.0889 23.0613 28.2902C22.5336 27.4775 21.7849 26.854 20.8151 26.4196C19.8453 25.9712 18.6829 25.747 17.3281 25.747H10.5894V36.0038ZM10.5894 19.0423H16.451C17.6062 19.0423 18.633 18.8532 19.5315 18.4748C20.43 18.0965 21.1288 17.55 21.628 16.8354C22.1414 16.1208 22.3981 15.2591 22.3981 14.2502C22.3981 12.807 21.8776 11.672 20.8365 10.8453C19.7953 10.0186 18.3906 9.60527 16.6221 9.60527H10.5894V19.0423Z" fill="white"/>
</svg>
