<svg width="21" height="13" viewBox="0 0 21 13" fill="none" xmlns="http://www.w3.org/2000/svg">
<path fill-rule="evenodd" clip-rule="evenodd" d="M9.75024 10.9373C8.83968 11.6054 7.71592 12 6.5 12C3.46243 12 1 9.53757 1 6.5C1 3.46243 3.46243 1 6.5 1C7.71592 1 8.83968 1.39457 9.75024 2.06265C8.66454 3.2243 8 4.78454 8 6.5C8 8.21546 8.66454 9.7757 9.75024 10.9373ZM10.5 11.6238C9.39703 12.4861 8.00853 13 6.5 13C2.91015 13 0 10.0899 0 6.5C0 2.91015 2.91015 0 6.5 0C8.00853 0 9.39703 0.513889 10.5 1.37616C11.603 0.513889 12.9915 0 14.5 0C18.0899 0 21 2.91015 21 6.5C21 10.0899 18.0899 13 14.5 13C12.9915 13 11.603 12.4861 10.5 11.6238ZM11.2498 2.06265C12.1603 1.39457 13.2841 1 14.5 1C17.5376 1 20 3.46243 20 6.5C20 9.53757 17.5376 12 14.5 12C13.2841 12 12.1603 11.6054 11.2498 10.9373C12.3355 9.7757 13 8.21546 13 6.5C13 4.78454 12.3355 3.2243 11.2498 2.06265ZM10.5 2.72506C11.4299 3.71007 12 5.03846 12 6.5C12 7.96154 11.4299 9.28993 10.5 10.2749C9.57008 9.28993 9 7.96154 9 6.5C9 5.03846 9.57008 3.71007 10.5 2.72506Z" fill="#1E1E1E"/>
</svg>
