<svg width="14" height="14" viewBox="0 0 14 14" fill="none" xmlns="http://www.w3.org/2000/svg">
<path d="M7.04462 1.74902H7.1225C7.84175 1.75165 11.4861 1.7779 12.4688 2.04215C12.7658 2.1228 13.0365 2.27999 13.2538 2.49803C13.471 2.71607 13.6273 2.98731 13.7069 3.28465C13.7952 3.61715 13.8574 4.05727 13.8994 4.5114L13.9081 4.6024L13.9274 4.8299L13.9344 4.9209C13.9913 5.72065 13.9983 6.46965 13.9991 6.63327V6.6989C13.9983 6.86865 13.9904 7.6684 13.9274 8.5014L13.9204 8.59327L13.9125 8.68427C13.8687 9.18477 13.804 9.68177 13.7069 10.0475C13.6273 10.3449 13.471 10.6161 13.2538 10.8341C13.0365 11.0522 12.7658 11.2094 12.4688 11.29C11.4537 11.563 7.59587 11.5823 7.06125 11.5831H6.937C6.66663 11.5831 5.54838 11.5779 4.37587 11.5376L4.22712 11.5324L4.151 11.5289L4.00138 11.5228L3.85175 11.5166C2.8805 11.4738 1.95563 11.4046 1.5295 11.2891C1.23255 11.2086 0.961931 11.0515 0.74467 10.8336C0.527409 10.6158 0.371108 10.3447 0.291375 10.0475C0.19425 9.68265 0.1295 9.18477 0.08575 8.68427L0.07875 8.5924L0.07175 8.5014C0.028318 7.90851 0.0043884 7.31436 0 6.7199L0 6.61227C0.00175 6.42415 0.00875 5.77402 0.056 5.05652L0.062125 4.9664L0.06475 4.9209L0.07175 4.8299L0.091 4.6024L0.09975 4.5114C0.14175 4.05727 0.203875 3.61627 0.29225 3.28465C0.371849 2.98731 0.528091 2.71607 0.74536 2.49803C0.96263 2.27999 1.23332 2.1228 1.53038 2.04215C1.9565 1.9284 2.88137 1.8584 3.85262 1.81465L4.00138 1.80852L4.15188 1.80327L4.22712 1.80065L4.37675 1.79452C5.2095 1.76775 6.04258 1.75287 6.87575 1.7499L7.04462 1.74902ZM5.6 4.55777V8.77352L9.23738 6.66652L5.6 4.55777Z" fill="#595959"/>
</svg>
