<svg width="16" height="16" viewBox="0 0 16 16" fill="none" xmlns="http://www.w3.org/2000/svg">
<path d="M11.9007 15H4.10071C2.45071 15 1.10071 13.65 1.10071 12V11.9L1.40071 3.9C1.45071 2.25 2.80071 1 4.40071 1H11.6007C13.2007 1 14.5507 2.25 14.6007 3.9L14.9007 11.9C14.9507 12.7 14.6507 13.45 14.1007 14.05C13.5507 14.65 12.8007 15 12.0007 15H11.9007ZM4.40071 2C3.30071 2 2.45071 2.85 2.40071 3.9L2.10071 12C2.10071 13.1 3.00071 14 4.10071 14H12.0007C12.5507 14 13.0507 13.75 13.4007 13.35C13.7507 12.95 13.9507 12.45 13.9507 11.9L13.6507 3.9C13.6007 2.8 12.7507 2 11.6507 2H4.40071Z" fill="white"/>
<path d="M8 7C6.05 7 4.5 5.45 4.5 3.5C4.5 3.2 4.7 3 5 3C5.3 3 5.5 3.2 5.5 3.5C5.5 4.9 6.6 6 8 6C9.4 6 10.5 4.9 10.5 3.5C10.5 3.2 10.7 3 11 3C11.3 3 11.5 3.2 11.5 3.5C11.5 5.45 9.95 7 8 7Z" fill="white"/>
</svg>
