<svg width="60" height="60" viewBox="0 0 60 60" fill="none" xmlns="http://www.w3.org/2000/svg">
<circle cx="30" cy="30" r="30" fill="#F8F8F8"/>
<path d="M12.0516 22.5826C12.0516 22.7545 12.0598 22.9256 12.0664 23.0966C12.388 22.9059 12.7981 22.6907 13.2073 22.554C14.1027 22.2577 15.057 22.4394 15.098 22.4476C15.1507 22.458 15.201 22.4786 15.2457 22.5084C15.2905 22.5382 15.329 22.5765 15.359 22.6211C15.389 22.6658 15.4099 22.7159 15.4205 22.7686C15.4311 22.8214 15.4312 22.8757 15.4208 22.9284C15.4105 22.9812 15.3898 23.0314 15.36 23.0762C15.3303 23.121 15.2919 23.1595 15.2473 23.1895C15.2026 23.2195 15.1525 23.2403 15.0998 23.251C15.0471 23.2616 14.9928 23.2617 14.94 23.2513C14.9335 23.2497 14.1502 23.1024 13.4668 23.3307C12.9479 23.5042 12.4011 23.8423 12.1229 24.0264C12.1736 24.6018 12.2423 25.151 12.3045 25.6331C12.3938 26.3206 12.4641 26.864 12.4519 27.252C12.4437 27.4844 12.4159 27.7954 12.3848 28.1384C12.3365 28.6622 12.2456 29.6656 12.3168 30.1084C12.9936 30.0968 13.6591 29.9328 14.264 29.6288C14.3597 29.5861 14.4682 29.5818 14.5671 29.6166C14.6659 29.6514 14.7477 29.7228 14.7956 29.816C14.8435 29.9093 14.8539 30.0174 14.8245 30.118C14.7952 30.2187 14.7285 30.3043 14.638 30.3572C13.9043 30.7279 13.0946 30.9232 12.2726 30.9277C12.104 30.9277 12.0025 30.9179 11.9878 30.9162C11.927 30.9102 11.8683 30.8906 11.816 30.8588C11.7637 30.8271 11.7192 30.7841 11.6858 30.7329C11.392 30.2819 11.4517 29.3423 11.5696 28.0639C11.599 27.7398 11.6269 27.4451 11.6334 27.2258C11.644 26.9041 11.5737 26.3639 11.4926 25.7386C11.3756 24.8383 11.2307 23.7178 11.2332 22.581C11.2356 20.8328 11.7873 18.9912 11.811 18.9135C11.8475 18.8158 11.9199 18.7358 12.0133 18.6895C12.1067 18.6433 12.2142 18.6344 12.314 18.6647C12.4138 18.6949 12.4983 18.762 12.5503 18.8523C12.6024 18.9426 12.6181 19.0493 12.5943 19.1508C12.5886 19.1696 12.0541 20.9572 12.0516 22.5826ZM14.2271 26.4384C13.9529 26.6201 13.6198 26.6029 13.61 26.6046C13.5052 26.6031 13.4038 26.6417 13.3266 26.7126C13.2495 26.7836 13.2024 26.8813 13.195 26.9859C13.1877 27.0904 13.2207 27.1938 13.2872 27.2748C13.3537 27.3558 13.4487 27.4083 13.5527 27.4214C13.9511 27.4392 14.3454 27.3334 14.6814 27.1186C14.8942 26.977 15.2068 26.6905 15.5391 26.3869C15.8297 26.12 16.2283 25.755 16.3707 25.6789C16.4181 25.6536 16.4601 25.6193 16.4943 25.5778C16.5285 25.5363 16.5542 25.4885 16.5699 25.437C16.5855 25.3856 16.591 25.3316 16.5858 25.2781C16.5806 25.2246 16.5649 25.1727 16.5397 25.1252C16.5144 25.0777 16.4801 25.0357 16.4386 25.0016C16.3971 24.9674 16.3493 24.9417 16.2978 24.926C16.2464 24.9103 16.1924 24.9049 16.1389 24.9101C16.0854 24.9153 16.0335 24.9309 15.986 24.9562C15.7675 25.0732 15.4622 25.3466 14.9858 25.7828C14.7051 26.0406 14.3884 26.3312 14.2271 26.4384ZM49.2279 43.6311C49.1624 43.6311 42.7448 43.577 40.3778 43.4723C38.7327 43.3986 35.2068 42.8658 33.2163 42.5491C36.4222 41.3132 39.7607 40.5373 42.5345 40.4456C42.6386 40.4375 42.7357 40.3899 42.806 40.3127C42.8762 40.2354 42.9144 40.1342 42.9126 40.0298C42.9108 39.9254 42.8693 39.8256 42.7964 39.7508C42.7236 39.6759 42.6249 39.6317 42.5206 39.6271H42.5075C39.2664 39.7344 35.2911 40.7403 31.6178 42.3191C31.5629 42.3304 31.5109 42.3527 31.4648 42.3845C30.625 42.7504 29.7951 43.1367 29.0012 43.559C24.922 45.7329 20.5555 46.9475 18.2253 47.1562C15.8763 47.3624 13.8424 46.2583 12.83 45.2459C12.3553 44.7712 12.0942 43.9617 12.1319 43.0811C12.1744 42.0563 12.6041 41.1266 13.3104 40.5299C14.6449 39.4105 15.985 38.298 17.3307 37.1922C17.4085 37.2037 17.4781 37.2323 17.5624 37.2323C17.9618 37.2323 18.4389 37.0899 19.0258 36.8124L19.0225 36.8165C19.0225 36.8165 23.2351 35.0618 23.8367 35.2729C24.3687 35.4595 25.3672 36.0586 22.7997 37.5572C20.9663 38.5721 18.1566 39.6443 18.1279 39.6542C18.0398 39.6894 17.9666 39.7541 17.9208 39.8371C17.875 39.9202 17.8593 40.0166 17.8765 40.1099C17.8936 40.2032 17.9426 40.2877 18.0149 40.3491C18.0873 40.4104 18.1787 40.4448 18.2736 40.4464C18.3227 40.4464 18.3718 40.4374 18.4193 40.4194C18.5371 40.3752 21.3109 39.3169 23.1967 38.2734C24.8663 37.3494 27.5738 35.5397 30.0407 33.4936C30.0464 33.4895 30.0537 33.4878 30.0595 33.4821L30.0636 33.4748C30.2052 33.3577 30.35 33.2423 30.4892 33.1228C34.7304 29.5109 42.1973 26.3795 47.4887 25.994C47.5969 25.9858 47.6975 25.9351 47.7684 25.8528C47.8393 25.7706 47.8747 25.6636 47.8668 25.5553C47.8562 25.4481 47.8049 25.349 47.7234 25.2785C47.642 25.208 47.5365 25.1714 47.4289 25.1764C46.3264 25.2574 45.129 25.4587 43.8891 25.7509C45.3639 24.4823 47.7137 22.3584 49.5094 20.2459C49.5799 20.1632 49.6146 20.0559 49.6059 19.9476C49.5972 19.8393 49.5459 19.7389 49.4632 19.6685C49.3805 19.5981 49.2732 19.5634 49.1649 19.572C49.0566 19.5807 48.9562 19.632 48.8858 19.7147C46.2528 22.8134 42.3904 25.9514 42.014 26.2543C37.6352 27.5744 32.992 29.9161 29.958 32.4991C29.9171 32.5352 29.8737 32.5679 29.8319 32.6031C29.4953 32.0897 29.3422 31.4777 29.3973 30.8663C29.5144 29.5993 32.4461 25.7444 33.6714 24.3775C34.2107 23.7743 35.093 23.5853 36.0269 23.3839C36.8822 23.1998 37.7661 23.0099 38.533 22.4951C40.102 21.4392 46.6014 14.4307 46.8781 14.1328C46.9452 14.0521 46.9789 13.9488 46.9721 13.844C46.9653 13.7393 46.9185 13.6411 46.8415 13.5698C46.7645 13.4984 46.6631 13.4593 46.5581 13.4605C46.4532 13.4618 46.3527 13.5032 46.2773 13.5763C46.211 13.6483 39.5659 20.8131 38.0763 21.8157C37.4404 22.243 36.635 22.4157 35.8558 22.5835C34.9686 22.775 34.0577 22.9722 33.3628 23.5435C33.0379 22.8904 31.2151 19.2548 30.395 18.1703C29.5127 17.0015 26.8274 13.4453 22.0369 12.3347C16.8839 11.1397 12.3258 13.9937 11.464 14.5772C10.6995 15.0937 10.0742 16.1683 10.3509 17.0719C10.4818 17.4983 10.9238 18.2137 12.4159 18.2137C15.7486 18.2137 17.1007 19.1058 18.0649 20.0691C19.3581 21.3623 20.1692 22.7725 20.6201 24.5068C20.9925 25.9383 22.077 26.1953 22.5959 26.125C22.7003 26.1116 22.7955 26.0586 22.8618 25.9769C22.9281 25.8952 22.9604 25.7911 22.9519 25.6863C22.9511 25.6715 22.8341 24.1909 22.8685 23.2464C22.9192 21.882 23.0084 21.1078 24.2582 21.0488C24.5659 21.039 24.7935 21.116 24.9735 21.3001C25.4024 21.7445 25.5571 22.7709 25.4302 24.3513C25.3705 25.1011 24.4612 26.0046 24.1158 26.2903C24.0361 26.3605 23.9868 26.459 23.9784 26.5649C23.97 26.6708 24.0031 26.7758 24.0707 26.8577C24.1383 26.9397 24.2351 26.9921 24.3406 27.004C24.4462 27.0158 24.5522 26.9862 24.6363 26.9213C24.7616 26.8182 25.6619 26.0456 26.0588 25.1051C26.4312 25.0438 26.9567 25.5668 27.0942 25.7305C27.1466 25.7918 28.3792 27.2323 29.7378 28.2661C29.1117 29.2621 28.6378 30.1935 28.5821 30.7918C28.5071 31.6171 28.7254 32.4424 29.1985 33.1228C28.664 33.5566 28.1246 33.9822 27.5861 34.3865C26.7586 33.5255 25.7445 32.9894 25.2134 32.7512C26.1783 31.5972 26.644 30.065 26.7103 27.7995C26.712 27.7457 26.703 27.6921 26.6838 27.6418C26.6647 27.5914 26.6359 27.5454 26.5989 27.5062C26.562 27.4671 26.5176 27.4356 26.4685 27.4136C26.4194 27.3916 26.3664 27.3795 26.3126 27.378C26.0916 27.387 25.8984 27.5499 25.8919 27.775C25.8297 29.9357 25.4172 31.2944 24.5127 32.3199C23.6026 33.3528 20.9222 34.9554 18.8179 36.0079C18.1165 36.3582 17.6147 36.4802 17.3234 36.3746C17.0369 36.2682 16.8552 35.8769 16.6301 35.3351C16.2373 34.3931 15.4785 34.4602 15.0268 34.5036C14.755 34.5257 14.5881 34.5363 14.4972 34.4577C14.3769 34.3521 14.4342 34.1132 14.5013 33.9364C14.6404 33.9151 14.7755 33.8823 14.9146 33.8398C15.2494 33.7391 15.7069 33.6 16.6727 33.6C16.7812 33.6 16.8853 33.5569 16.9621 33.4801C17.0388 33.4034 17.0819 33.2993 17.0819 33.1907C17.0819 33.0822 17.0388 32.9781 16.9621 32.9014C16.8853 32.8246 16.7812 32.7815 16.6727 32.7815C15.5858 32.7815 15.039 32.9468 14.6765 33.0565C14.3802 33.1474 14.2918 33.176 14.052 33.0876C13.7115 32.9616 13.8089 32.2577 13.8539 32.076C13.8794 31.971 13.8624 31.8602 13.8065 31.7678C13.7506 31.6753 13.6605 31.6087 13.5557 31.5824C13.4509 31.5562 13.34 31.5724 13.2471 31.6276C13.1543 31.6828 13.087 31.7725 13.06 31.8771C12.9176 32.4378 12.9045 33.4436 13.6787 33.807C13.5609 34.2196 13.5584 34.7237 13.957 35.0732C14.3196 35.39 14.7518 35.3482 15.1012 35.3188C15.5645 35.277 15.7208 35.2803 15.8739 35.6502C16.04 36.0496 16.2315 36.4752 16.5319 36.7879C15.7143 37.4623 13.8678 38.9863 12.7825 39.9046C11.9019 40.6494 11.3666 41.7936 11.3134 43.0475C11.2667 44.1524 11.6179 45.1919 12.2505 45.8245C13.2941 46.8673 15.2846 48.0008 17.6442 48C17.8595 48 18.078 47.9918 18.2982 47.9714C20.7077 47.7553 25.206 46.5088 29.3867 44.2817C30.1561 43.8725 30.9581 43.4985 31.7717 43.1441C32.7121 43.3004 38.1066 44.1901 40.341 44.2891C42.7227 44.3947 49.1559 44.4487 49.2213 44.4495H49.2238C49.2775 44.4497 49.3308 44.4394 49.3805 44.419C49.4303 44.3986 49.4755 44.3687 49.5136 44.3308C49.5518 44.293 49.5821 44.248 49.6029 44.1984C49.6237 44.1488 49.6345 44.0957 49.6347 44.0419C49.6349 43.9882 49.6245 43.9349 49.6041 43.8852C49.5838 43.8355 49.5538 43.7902 49.516 43.7521C49.4781 43.7139 49.4331 43.6836 49.3836 43.6628C49.334 43.6421 49.2816 43.6313 49.2279 43.6311Z" fill="#1E1E1E"/>
</svg>
