<svg width="60" height="60" viewBox="0 0 60 60" fill="none" xmlns="http://www.w3.org/2000/svg">
<circle cx="30" cy="30" r="30" fill="#F8F8F8"/>
<path d="M40.0833 28.1755C40.2508 28.2513 43.0715 27.1175 44.1353 26.3353L47.3184 23.9953L46.1921 24.4959C44.5903 25.2077 42.9184 25.7499 41.2038 26.1137C40.9872 26.1595 40.7703 26.2023 40.5532 26.242C40.553 26.1785 40.5345 26.1163 40.5 26.063C40.4654 26.0096 40.4162 25.9674 40.3583 25.9413C39.6327 25.6131 38.8979 25.3201 38.154 25.0624C38.5213 24.6637 38.7996 24.1915 38.9704 23.677C38.9844 23.6355 38.9901 23.5916 38.9871 23.5479C38.9841 23.5042 38.9725 23.4615 38.953 23.4223C38.9334 23.3831 38.9063 23.3481 38.8732 23.3194C38.8401 23.2906 38.8017 23.2687 38.7601 23.2549C38.7185 23.2411 38.6746 23.2356 38.6309 23.2388C38.5872 23.242 38.5446 23.2538 38.5054 23.2735C38.4663 23.2932 38.4314 23.3205 38.4029 23.3537C38.3743 23.3869 38.3526 23.4255 38.3389 23.4671C38.1644 23.9901 37.8562 24.4585 37.4451 24.8258C36.4562 24.5136 35.4498 24.2596 34.4311 24.0652C34.6637 23.7434 34.846 23.3881 34.9718 23.0114C34.988 22.9694 34.9956 22.9245 34.994 22.8794C34.9924 22.8344 34.9817 22.7901 34.9625 22.7493C34.9434 22.7085 34.9161 22.672 34.8824 22.6421C34.8487 22.6121 34.8093 22.5893 34.7665 22.5751C34.7237 22.5608 34.6785 22.5553 34.6336 22.559C34.5887 22.5628 34.545 22.5755 34.5051 22.5966C34.4653 22.6177 34.4301 22.6467 34.4018 22.6818C34.3735 22.7168 34.3525 22.7573 34.3403 22.8007C34.2004 23.219 33.9777 23.6049 33.6855 23.9353C32.6234 23.7648 31.5517 23.6599 30.4766 23.6212C30.6299 23.458 30.7774 23.2888 30.9173 23.1139C30.9693 23.0447 30.9923 22.958 30.9815 22.8721C30.9707 22.7862 30.9268 22.7079 30.8593 22.6537C30.7917 22.5996 30.7057 22.5739 30.6195 22.582C30.5333 22.5902 30.4537 22.6315 30.3975 22.6974C30.138 23.0215 29.8537 23.3248 29.5469 23.6046C23.7543 23.604 18.1248 25.5234 13.5391 29.0627C13.4691 29.1166 13.4233 29.1961 13.4119 29.2838C13.4005 29.3714 13.4244 29.46 13.4783 29.53C13.5322 29.6001 13.6117 29.6458 13.6994 29.6572C13.787 29.6686 13.8756 29.6448 13.9456 29.5909C18.183 26.3211 23.3405 24.4652 28.6897 24.2852C28.2313 24.6019 27.741 24.87 27.2269 25.0849L26.4297 25.4173C21.7359 25.98 17.2818 27.8018 13.5391 30.6896C13.4691 30.7436 13.4233 30.8231 13.4119 30.9107C13.4005 30.9984 13.4244 31.087 13.4783 31.157C13.5322 31.227 13.6117 31.2728 13.6994 31.2842C13.787 31.2956 13.8756 31.2717 13.9456 31.2178C16.7021 29.0924 19.8633 27.5517 23.2358 26.6902C22.2264 27.4188 21.4296 28.4033 20.9273 29.5423C20.4251 30.6814 20.2356 31.9337 20.3785 33.1704C20.5213 34.407 20.9913 35.5832 21.7399 36.5777C22.4886 37.5723 23.4889 38.3492 24.6378 38.8285C21.1612 38.7633 17.7345 37.9897 14.5671 36.5551C14.5272 36.5371 14.4842 36.5271 14.4404 36.5257C14.3967 36.5242 14.3531 36.5315 14.3121 36.5469C14.2711 36.5623 14.2336 36.5857 14.2017 36.6156C14.1698 36.6455 14.144 36.6815 14.126 36.7213C14.1079 36.7612 14.0979 36.8043 14.0965 36.848C14.0951 36.8918 14.1023 36.9353 14.1177 36.9763C14.1331 37.0173 14.1565 37.0548 14.1864 37.0867C14.2164 37.1187 14.2523 37.1444 14.2922 37.1624C18.6246 39.1263 23.41 39.8734 28.1349 39.3235C32.8598 38.7736 37.3457 36.9474 41.1113 34.041C41.1814 33.9871 41.2271 33.9076 41.2385 33.8199C41.2499 33.7323 41.226 33.6437 41.1721 33.5737C41.1182 33.5036 41.0387 33.4579 40.9511 33.4465C40.8634 33.4351 40.7748 33.4589 40.7048 33.5129C37.948 35.639 34.7862 37.18 31.413 38.0413C32.4232 37.3133 33.221 36.329 33.7238 35.1899C34.2267 34.0507 34.4166 32.798 34.2738 31.561C34.131 30.324 33.6607 29.1475 32.9115 28.1529C32.1623 27.1583 31.1613 26.3816 30.0118 25.903C32.2062 25.9433 34.3862 26.2665 36.4979 26.8643C37.5575 27.165 39.9342 28.108 40.0833 28.1755ZM30.3242 32.3258C30.3242 32.9189 30.1483 33.4987 29.8188 33.9919C29.4892 34.4851 29.0209 34.8695 28.4729 35.0965C27.9249 35.3234 27.3219 35.3828 26.7401 35.2671C26.1584 35.1514 25.624 34.8658 25.2046 34.4464C24.7852 34.0269 24.4996 33.4926 24.3839 32.9108C24.2681 32.3291 24.3275 31.7261 24.5545 31.1781C24.7815 30.6301 25.1659 30.1617 25.6591 29.8322C26.1522 29.5027 26.7321 29.3268 27.3252 29.3268C28.1203 29.3277 28.8826 29.6439 29.4448 30.2062C30.007 30.7684 30.3233 31.5307 30.3242 32.3258ZM30.5924 25.2448C30.584 25.2468 30.5756 25.2493 30.5674 25.2523C29.841 25.224 29.1154 25.2254 28.3907 25.2565C28.8906 24.976 29.3617 24.6467 29.7969 24.2735C30.8765 24.2838 31.9545 24.3628 33.0241 24.5101C32.6702 24.7446 32.2741 24.9082 31.8578 24.9916L30.5924 25.2448ZM34.7968 25.7655C34.1054 25.6239 33.4109 25.5103 32.7134 25.4248C33.1584 25.2414 33.5665 24.9789 33.918 24.6501C34.8678 24.8154 35.8076 25.0343 36.7328 25.3057C36.4557 25.4428 36.1598 25.5382 35.8548 25.5889L34.7968 25.7655ZM37.5817 25.5706C38.2981 25.8088 39.0073 26.0796 39.7093 26.3828C39.0978 26.4744 38.4831 26.5436 37.8649 26.5902C37.3784 26.4278 36.8894 26.2798 36.3979 26.1462C36.823 26.0246 37.2236 25.8298 37.5817 25.5706ZM27.3252 29.9932C26.8639 29.9932 26.4129 30.13 26.0293 30.3863C25.6457 30.6426 25.3468 31.0069 25.1702 31.4331C24.9937 31.8594 24.9475 32.3283 25.0375 32.7808C25.1275 33.2333 25.3496 33.6489 25.6759 33.9751C26.0021 34.3013 26.4177 34.5235 26.8702 34.6135C27.3226 34.7035 27.7916 34.6573 28.2178 34.4807C28.644 34.3042 29.0083 34.0052 29.2646 33.6216C29.5209 33.2381 29.6577 32.7871 29.6577 32.3258C29.6571 31.7073 29.4111 31.1144 28.9738 30.6772C28.5365 30.2399 27.9436 29.9939 27.3252 29.9932ZM25.8026 16.064C31.9359 14.7457 38.3351 15.5522 43.9495 18.3509L45.371 19.0615C45.4698 19.1148 45.5813 19.1403 45.6935 19.1352C45.8056 19.1302 45.9144 19.0949 46.0081 19.033C46.0953 18.9791 46.1686 18.9055 46.2221 18.8181C46.2757 18.7308 46.308 18.632 46.3165 18.5299C46.3249 18.4277 46.3093 18.325 46.2709 18.23C46.2324 18.135 46.1722 18.0504 46.095 17.9829C42.7816 15.0837 38.8359 12.9999 34.5733 11.8981C30.3106 10.7962 25.8493 10.707 21.546 11.6374L12.3919 13.6167C11.9099 13.721 11.4672 13.9595 11.115 14.3046C10.7629 14.6498 10.5155 15.0876 10.4017 15.5675C10.2878 16.0473 10.312 16.5495 10.4716 17.0161C10.6311 17.4828 10.9194 17.8947 11.3032 18.2044C11.6063 18.4501 11.9609 18.6245 12.3406 18.7146C12.7203 18.8047 13.1154 18.8082 13.4966 18.7248L25.8026 16.064Z" fill="#1E1E1E"/>
<path d="M49.9389 48.0912L47.684 35.7912C47.4967 34.7767 47.0771 33.8194 46.4579 32.9943C46.4207 32.9449 46.3704 32.9067 46.3128 32.8842C46.2551 32.8617 46.1924 32.8557 46.1315 32.8669L46.0201 32.8873C45.8419 31.2334 45.336 29.6316 44.532 28.1754L44.0904 27.3747C44.0567 27.3135 44.0045 27.2644 43.9413 27.2345C43.8781 27.2045 43.8071 27.1952 43.7383 27.2079C43.6695 27.2206 43.6065 27.2545 43.5581 27.305C43.5097 27.3555 43.4784 27.42 43.4687 27.4892L43.3412 28.3938C43.1084 30.0406 43.2039 31.7172 43.6221 33.327L43.5094 33.3476C43.4485 33.3588 43.392 33.3867 43.3461 33.4282C43.3002 33.4697 43.2667 33.5231 43.2495 33.5825C42.9633 34.5737 42.9106 35.6176 43.0954 36.6325L45.3503 48.9325C45.3693 49.0179 45.4198 49.0929 45.4917 49.1425C45.5637 49.1921 45.6517 49.2127 45.7382 49.2001C45.7815 49.1927 45.8228 49.1767 45.8598 49.1531C45.8968 49.1294 45.9287 49.0986 45.9537 49.0625C45.9786 49.0264 45.9961 48.9856 46.005 48.9426C46.014 48.8997 46.0143 48.8553 46.0059 48.8122L43.7509 36.5123C43.597 35.667 43.6261 34.7985 43.8361 33.9653L46.0453 33.5602C46.5371 34.2647 46.8723 35.0665 47.0283 35.9114L49.2832 48.2114C49.2992 48.2983 49.349 48.3753 49.4217 48.4255C49.4945 48.4757 49.5842 48.495 49.6711 48.479C49.758 48.4631 49.8351 48.4133 49.8853 48.3405C49.9355 48.2678 49.9547 48.1781 49.9388 48.0912H49.9389Z" fill="#1E1E1E"/>
</svg>
