<svg width="60" height="60" viewBox="0 0 60 60" fill="none" xmlns="http://www.w3.org/2000/svg">
<circle cx="30" cy="30" r="30" fill="#E5E342"/>
<path d="M46.0228 31.5424C45.9119 29.8846 45.3539 27.3606 44.385 25.6219C44.6291 24.2408 44.5037 22.6062 44.0415 21.2089C43.3543 19.1308 41.8705 17.428 39.7123 16.2186C39.6829 15.2936 39.3929 14.3957 38.8757 13.6283C37.5171 11.5967 34.6758 10.3766 30.4304 10.0018C30.4158 10.0006 30.4012 9.99995 30.3866 10H29.2859C29.2714 10 29.2566 10.0005 29.2419 10.0018C24.9967 10.3766 22.1552 11.5967 20.7966 13.6283C20.2794 14.3957 19.9895 15.2936 19.9602 16.2186C17.802 17.4281 16.3179 19.131 15.6308 21.2091C15.1687 22.6062 15.0433 24.2408 15.2874 25.6221C14.3186 27.3608 13.7605 29.8848 13.6496 31.5426C13.5298 33.3374 14.2055 36.101 15.9722 37.9267C16.9538 38.9412 18.1326 39.4882 19.3969 39.5226C20.2074 42.2647 22.0339 44.5541 23.9775 46.1754V49.6155H24.9772V46.9445C25.3363 47.1998 25.7066 47.4389 26.0872 47.6609C27.2261 48.3216 28.5196 48.6692 29.8363 48.6683C31.1324 48.6683 32.4292 48.3324 33.5853 47.6609C33.9659 47.4389 34.3363 47.1998 34.6954 46.9445V49.6155H35.6952V46.1754C37.6385 44.5541 39.4652 42.2647 40.2756 39.5224C41.5398 39.488 42.7188 38.9412 43.7003 37.9267C45.4669 36.101 46.1426 33.3374 46.0228 31.5426V31.5424ZM21.6389 14.1671C22.8076 12.4376 25.4591 11.3426 29.3081 10.9994H30.3644C34.2133 11.3426 36.8649 12.4376 38.0335 14.1671C38.3915 14.6968 38.5727 15.2241 38.6561 15.6903C38.5166 15.6279 38.376 15.5678 38.2344 15.51C35.868 14.5481 32.9745 14.1458 30.4947 14.4339C30.2584 14.4615 30.0392 14.5026 29.8361 14.557C29.6199 14.5001 29.3999 14.459 29.1777 14.4341C26.6978 14.1462 23.8044 14.5482 21.4382 15.51C21.295 15.5682 21.1548 15.6285 21.0163 15.6903C21.0999 15.2241 21.281 14.6968 21.6389 14.1671ZM19.43 35.9087C19.378 36.6503 19.2914 37.8857 19.2329 38.5148C18.2989 38.4421 17.4455 38.0113 16.6908 37.2314C15.2055 35.6962 14.5385 33.2409 14.6476 31.6091C14.7452 30.1456 15.2169 28.037 15.9535 26.5121C15.9535 26.5121 17.2357 23.3415 20.6906 22.5933L20.4788 21.6163C18.3913 22.0684 17.0132 23.2564 16.1658 24.3051C16.1494 23.3766 16.2905 22.3988 16.5802 21.5228C18.2377 16.5113 24.8767 14.9412 29.0627 15.4273C30.3002 15.5709 30.4945 16.1057 30.5583 16.2813C31.0882 17.7386 28.9598 20.8953 27.2791 22.6715C26.7803 23.1986 26.215 23.7509 25.6684 24.2849C24.9867 24.9508 24.2818 25.6395 23.6652 26.3167C22.9961 27.0514 21.3479 28.9582 20.4961 30.7898C19.8944 32.0843 19.6614 33.5237 19.5256 34.6329C19.5114 34.7486 19.483 35.1499 19.43 35.9087ZM27.6341 40.3731H32.0385C32.8693 40.3731 33.5451 41.0488 33.5451 41.8795C33.5451 42.7102 32.8693 43.3861 32.0387 43.3861H27.6343C26.8036 43.3861 26.1277 42.7102 26.1277 41.8795C26.1277 41.0488 26.8036 40.3731 27.6341 40.3731ZM25.3748 36.9735C23.6343 36.9735 22.2181 35.7792 22.2181 34.311C22.2181 32.8428 23.6341 31.6487 25.3748 31.6487C27.1155 31.6487 28.5315 32.843 28.5315 34.311C28.5315 35.7791 27.1155 36.9735 25.3748 36.9735ZM31.1415 34.311C31.1415 32.843 32.5575 31.6487 34.298 31.6487C36.0385 31.6487 37.4548 32.843 37.4548 34.311C37.4548 35.7791 36.0387 36.9735 34.298 36.9735C32.5573 36.9735 31.1415 35.7792 31.1415 34.311ZM29.8363 24.9824C28.2503 24.9824 26.7843 25.2936 25.4917 25.8615C25.7812 25.5725 27.032 24.3491 27.3587 24.0215C28.1748 23.8613 29.0046 23.7813 29.8363 23.7827C30.6961 23.7827 31.5241 23.865 32.3141 24.0215C32.6408 24.3493 33.8916 25.5726 34.1812 25.8615C32.8885 25.2936 31.4223 24.9824 29.8363 24.9824ZM33.0832 46.7962C31.0806 47.9596 28.5922 47.9596 26.5894 46.7962C24.0391 45.3153 21.0929 42.4186 20.2172 38.7147C20.2349 38.5399 20.5735 34.3176 20.609 34.0843C20.609 34.0843 20.8076 36.3862 20.8115 36.5352C20.9202 40.6301 23.9871 44.0112 26.7936 45.6463C27.7173 46.1844 28.7672 46.468 29.8362 46.468C30.9053 46.468 31.9552 46.1844 32.8789 45.6463C35.6854 44.0112 38.7523 40.6301 38.861 36.5352C38.8648 36.3862 39.0635 34.0843 39.0635 34.0843C39.0988 34.3176 39.4376 38.5397 39.4552 38.7147C38.5796 42.4186 35.6334 45.3151 33.0832 46.7962ZM42.9819 37.2314C42.2271 38.0116 41.3737 38.4421 40.4399 38.5148C40.3812 37.8858 40.2945 36.6503 40.2427 35.9087C40.1896 35.1499 40.1612 34.7486 40.1471 34.6329C40.0115 33.5236 39.7784 32.0844 39.1764 30.7898C38.3248 28.9582 36.6766 27.0514 36.0076 26.3167C35.3911 25.6395 32.8925 23.1988 32.3936 22.6715C31.7446 21.9855 31.0291 21.0935 30.4253 20.173C30.4689 20.1008 32.5455 17.2954 31.1851 15.3748C35.3789 15.0883 41.5089 16.7348 43.0924 21.5228C43.3821 22.3988 43.5234 23.3768 43.5068 24.3053C42.6596 23.2564 41.2814 22.0684 39.1938 21.6163L38.9821 22.5933C42.4193 23.3377 43.7197 26.513 43.7197 26.513C44.4559 28.0379 44.9276 30.1458 45.0252 31.6089C45.1343 33.2409 44.4672 35.6963 42.9819 37.2314Z" fill="#1E1E1E"/>
<path d="M27.1758 33.3409C26.5438 34.1289 25.8639 34.4924 25.1541 34.4212C24.3684 34.3423 23.7362 33.7377 23.6428 33.5563L23.6468 33.5654L22.7197 33.9397C22.8946 34.3728 23.7813 35.2315 24.9254 35.4001C25.0501 35.4182 25.1844 35.4295 25.3275 35.4295C26.0646 35.4295 27.0222 35.1303 27.9558 33.9662L27.1758 33.3409ZM36.8791 33.9662L36.0992 33.3409C35.467 34.1291 34.7868 34.493 34.0773 34.4212C33.2917 34.3423 32.6595 33.7377 32.5662 33.5565L32.5702 33.5656L31.6432 33.9395C31.8177 34.3728 32.7044 35.2314 33.8486 35.4001C33.9818 35.4197 34.1162 35.4295 34.2507 35.4295C34.9878 35.4295 35.9453 35.1305 36.8791 33.9662ZM29.8363 42.9714C31.3241 42.9714 32.4159 42.4846 33.1744 41.4827L32.3773 40.8792C31.8129 41.6245 31.0057 41.9717 29.8361 41.9717C28.6666 41.9717 27.8595 41.6245 27.295 40.8792L26.498 41.4827C27.2565 42.4846 28.3484 42.9714 29.8363 42.9714Z" fill="#1E1E1E"/>
</svg>
