<svg width="60" height="60" viewBox="0 0 60 60" fill="none" xmlns="http://www.w3.org/2000/svg">
<circle cx="30" cy="30" r="30" fill="#F8F8F8"/>
<path d="M41.3743 23.075C40.4909 22.075 39.3909 21.2834 38.1743 20.6667C38.2159 20.3417 38.2409 20.0084 38.2409 19.6834C38.2409 15.2584 34.5409 11.6667 29.9993 11.6667C25.4576 11.6667 21.7576 15.2584 21.7576 19.6834C21.7576 20.0084 21.7826 20.3334 21.8243 20.6667C20.6076 21.2834 19.5076 22.075 18.6243 23.075C17.0409 24.8834 16.4159 27.1 16.7576 29.6584C16.9826 31.3917 17.5159 32.8334 17.7076 33.3084C17.7076 33.6084 17.7159 33.9167 17.7409 34.225C17.7659 34.6834 18.1659 35.0334 18.6243 35.0084C18.7338 35.001 18.8408 34.972 18.9391 34.9231C19.0374 34.8743 19.1251 34.8064 19.1971 34.7236C19.2691 34.6407 19.324 34.5445 19.3587 34.4403C19.3934 34.3362 19.4072 34.2262 19.3993 34.1167C19.3909 33.925 19.3909 33.7417 19.3826 33.5584C19.3909 33.5584 19.3993 33.5417 19.4076 33.525C19.4326 33.4834 22.0993 28.5917 29.9993 28.5917C37.8993 28.5917 40.4743 33.3167 40.5909 33.5334L40.6076 33.55C40.5826 34.5167 40.4743 35.5167 40.2743 36.5C40.1826 36.95 40.4659 37.3917 40.9159 37.4834C40.9743 37.4917 41.0326 37.5 41.0909 37.5C41.4743 37.5 41.8243 37.2334 41.9076 36.8334C42.1493 35.65 42.2826 34.4667 42.2909 33.3084C42.4826 32.8334 43.0159 31.3917 43.2409 29.6584C43.5826 27.1 42.9576 24.8834 41.3743 23.075ZM29.9993 18.85C28.0909 18.85 25.8576 19.1417 23.7659 19.85C23.9743 18.825 26.3076 17.5 29.9993 17.5C33.6909 17.5 36.0243 18.825 36.2326 19.85C34.1409 19.1417 31.9076 18.85 29.9993 18.85ZM36.1159 44.0667C34.4409 45.525 32.3826 46.3917 29.9993 46.6584C28.2993 46.4667 26.7659 45.975 25.4243 45.1834C25.0326 44.95 24.5159 45.0834 24.2826 45.475C24.0493 45.8667 24.1826 46.3834 24.5743 46.6167C26.1493 47.55 27.9409 48.125 29.9159 48.325H30.0826C32.8576 48.0334 35.2576 47.025 37.2076 45.325C37.5576 45.025 37.5909 44.5 37.2909 44.15C36.9909 43.8 36.4659 43.7667 36.1159 44.0667Z" fill="#1E1E1E"/>
<path d="M24.5414 35.7417C25.3497 35.3334 26.3164 35.3334 27.1331 35.7417C27.331 35.8416 27.5604 35.8591 27.7712 35.7904C27.982 35.7217 28.157 35.5724 28.2581 35.375C28.3075 35.2772 28.337 35.1706 28.3449 35.0613C28.3528 34.952 28.3389 34.8422 28.304 34.7383C28.2691 34.6344 28.2139 34.5385 28.1417 34.4561C28.0694 34.3737 27.9815 34.3065 27.8831 34.2584C27.2505 33.9419 26.5529 33.7772 25.8456 33.7772C25.1382 33.7772 24.4406 33.9419 23.8081 34.2584C23.3997 34.4667 23.2331 34.9667 23.4331 35.375C23.6414 35.7834 24.1414 35.95 24.5497 35.75L24.5414 35.7417ZM32.8747 35.7417C33.6831 35.3334 34.6497 35.3334 35.4664 35.7417C35.6643 35.8416 35.8937 35.8591 36.1045 35.7904C36.3153 35.7217 36.4903 35.5724 36.5914 35.375C36.6408 35.2772 36.6703 35.1706 36.6782 35.0613C36.6861 34.952 36.6722 34.8422 36.6373 34.7383C36.6024 34.6344 36.5473 34.5385 36.475 34.4561C36.4027 34.3737 36.3148 34.3065 36.2164 34.2584C35.5838 33.9419 34.8862 33.7772 34.1789 33.7772C33.4716 33.7772 32.774 33.9419 32.1414 34.2584C31.7331 34.4667 31.5664 34.9667 31.7664 35.375C31.9747 35.7834 32.4747 35.95 32.8831 35.75L32.8747 35.7417ZM27.9581 44.075C28.5997 44.3917 29.2997 44.55 29.9997 44.55C30.6997 44.55 31.3997 44.3917 32.0414 44.075C32.4497 43.8667 32.6164 43.3667 32.4164 42.9584C32.2081 42.55 31.7081 42.375 31.2997 42.5834C30.4914 42.9917 29.5247 42.9917 28.7081 42.5834C28.6103 42.5336 28.5036 42.5038 28.3943 42.4957C28.2849 42.4877 28.175 42.5015 28.071 42.5364C27.967 42.5714 27.8711 42.6267 27.7887 42.6991C27.7064 42.7716 27.6393 42.8597 27.5914 42.9584C27.542 43.0562 27.5124 43.1628 27.5046 43.2721C27.4967 43.3814 27.5106 43.4912 27.5455 43.5951C27.5804 43.699 27.6355 43.7949 27.7078 43.8773C27.78 43.9597 27.8679 44.0269 27.9664 44.075H27.9581ZM24.1664 32.5H27.4997C27.9581 32.5 28.3331 32.125 28.3331 31.6667C28.3331 31.2084 27.9581 30.8334 27.4997 30.8334H24.1664C23.7081 30.8334 23.3331 31.2084 23.3331 31.6667C23.3331 32.125 23.7081 32.5 24.1664 32.5ZM35.8331 30.8334H32.4997C32.0414 30.8334 31.6664 31.2084 31.6664 31.6667C31.6664 32.125 32.0414 32.5 32.4997 32.5H35.8331C36.2914 32.5 36.6664 32.125 36.6664 31.6667C36.6664 31.2084 36.2914 30.8334 35.8331 30.8334ZM18.3331 35.8334C17.9581 35.8334 17.6331 36.0834 17.5331 36.4417L15.9164 42.1L11.8581 46.9667C11.7566 47.0885 11.692 47.2367 11.6718 47.3939C11.6516 47.5511 11.6767 47.7107 11.744 47.8542C11.8114 47.9977 11.9183 48.1189 12.0521 48.2038C12.186 48.2887 12.3412 48.3336 12.4997 48.3334H16.6664C16.8914 48.3334 17.0997 48.2417 17.2581 48.0917L19.5997 45.7417L25.2247 44.1334C25.5831 44.0334 25.8331 43.7084 25.8331 43.3334C25.8331 39.6167 22.0497 35.8334 18.3331 35.8334ZM19.4081 44.0667L17.5997 42.2584L18.9497 37.55C21.3414 37.9167 23.7497 40.325 24.1164 42.7167L19.4081 44.0667ZM47.8331 43.4L42.2414 40.9834C41.5664 39.8917 39.8581 37.325 38.4497 36.975C37.5247 36.75 36.5497 37.3417 35.8414 38.575C35.1164 39.8334 34.7997 41.5334 35.7247 42.5C36.1664 42.9584 36.9497 43.1167 37.8414 43.1167C39.1414 43.1167 40.6581 42.775 41.6081 42.5167L47.1747 44.9167C47.2831 44.9667 47.3914 44.9834 47.5081 44.9834C47.8331 44.9834 48.1414 44.7917 48.2747 44.4834C48.3191 44.3834 48.343 44.2756 48.3452 44.1662C48.3473 44.0569 48.3276 43.9482 48.2873 43.8465C48.2469 43.7449 48.1867 43.6523 48.1102 43.5742C48.0336 43.4961 47.9422 43.4341 47.8414 43.3917L47.8331 43.4ZM36.9247 41.3417C36.7997 41.2 36.7581 40.6834 37.0331 39.95C37.3581 39.1 37.8914 38.6084 38.0581 38.5917C38.5081 38.7084 39.4997 39.8667 40.3497 41.1084C38.7581 41.45 37.2747 41.5667 36.9331 41.3334L36.9247 41.3417Z" fill="#1E1E1E"/>
</svg>
