<svg width="60" height="60" viewBox="0 0 60 60" fill="none" xmlns="http://www.w3.org/2000/svg">
<circle cx="30" cy="30" r="30" fill="#F8F8F8"/>
<g clip-path="url(#clip0_610_100)">
<path d="M24.6569 30.3789C24.3073 30.3789 24.0213 30.6649 24.0213 31.0145C24.0213 31.9977 23.0316 32.9912 22.0445 32.9912C21.6949 32.9912 21.4089 33.2709 21.4089 33.6268C21.4089 33.9764 21.6949 34.2624 22.0445 34.2624C23.8369 34.2624 25.2925 32.8069 25.2925 31.0145C25.2925 30.6649 25.0065 30.3789 24.6569 30.3789ZM20.5318 19.3956C17.4618 19.3956 14.9639 21.8935 14.9639 24.9635C14.9639 25.3048 15.2435 25.5991 15.5995 25.5991C15.9491 25.5991 16.2351 25.3131 16.2351 24.9635C16.2351 22.599 18.1692 20.6668 20.5318 20.6668C20.8814 20.6668 21.1674 20.3808 21.1674 20.0312C21.1674 19.6816 20.8814 19.3956 20.5318 19.3956Z" fill="#1E1E1E"/>
<path d="M47.8441 11.0755C47.3954 10.1265 46.2888 9.7375 45.3398 10.1856C42.8419 11.3869 39.8418 12.067 35.9074 12.3212C34.5142 12.4179 33.7146 13.8696 34.2803 15.0544L35.5197 17.7239L28.0767 21.1943C26.9009 18.1752 23.9644 16.0332 20.5321 16.0332C16.0574 16.0332 12.4217 19.6689 12.4217 24.1372V27.3978C10.8257 29.3585 9.95671 31.8106 9.96194 34.3387V47.661C9.96194 48.9513 11.0107 50 12.301 50H28.7568C30.0471 50 31.0959 48.9513 31.0959 47.661V34.0654C31.0959 31.5611 30.2314 29.1903 28.6361 27.2898V24.5313L36.899 20.6795L38.0875 23.241C38.6787 24.4779 40.3039 24.7207 41.2274 23.7495C43.9606 20.8956 46.414 19.0396 48.9374 17.8955C49.1623 17.7951 49.365 17.651 49.5337 17.4716C49.7024 17.2922 49.8338 17.081 49.9201 16.8503C50.0065 16.6196 50.0461 16.3741 50.0367 16.128C50.0273 15.8819 49.969 15.6401 49.8653 15.4167L47.8441 11.0755ZM24.1868 46.93H16.8773C16.5214 46.93 16.2417 46.644 16.2417 46.2944C16.2417 45.9449 16.5214 45.6588 16.8773 45.6588H24.1868C24.5364 45.6588 24.8224 45.9449 24.8224 46.2944C24.8224 46.644 24.5364 46.93 24.1868 46.93ZM24.1868 42.0549H16.8773C16.5214 42.0549 16.2417 41.7753 16.2417 41.4193C16.2417 41.0697 16.5214 40.7837 16.8773 40.7837H24.1868C24.5364 40.7837 24.8224 41.0697 24.8224 41.4193C24.8224 41.7753 24.5364 42.0549 24.1868 42.0549ZM27.3649 31.5992C27.3649 34.0908 25.3373 36.112 22.8457 36.112H18.2121C15.7205 36.112 13.693 34.0908 13.693 31.5992V24.1372C13.693 20.368 16.7566 17.3044 20.5321 17.3044C23.4559 17.3044 25.9538 19.1477 26.9263 21.7282L25.9856 22.1668C25.9538 22.1668 25.9157 22.1668 25.8839 22.1732L21.7906 22.8533C21.6317 22.8787 21.4918 22.9804 21.4156 23.1202C21.3457 23.2473 21.3329 23.4062 21.3838 23.5397C21.3902 23.5588 21.3965 23.5715 21.4029 23.5906L23.3923 27.8682C23.4622 28.0144 23.5957 28.1224 23.7546 28.1542C23.9199 28.1924 24.0851 28.1479 24.2059 28.0398L26.9581 25.6881C27.0979 25.7898 27.2314 25.8978 27.3649 26.0122V31.5992ZM48.4098 16.7387C45.7339 17.9464 43.1597 19.8977 40.3122 22.8723C40.2391 22.9501 40.1481 23.0089 40.047 23.0433C39.946 23.0778 39.8381 23.087 39.7327 23.07C39.6273 23.0531 39.5277 23.0106 39.4425 22.9462C39.3574 22.8818 39.2893 22.7975 39.2443 22.7007L35.4307 14.5204C35.3851 14.4235 35.3641 14.3167 35.3697 14.2097C35.3752 14.1027 35.407 13.9987 35.4623 13.9069C35.5176 13.8152 35.5947 13.7384 35.6868 13.6836C35.7788 13.6287 35.883 13.5974 35.99 13.5925C40.0961 13.3255 43.2423 12.6073 45.8928 11.3297C46.1896 11.1918 46.5513 11.31 46.6873 11.6094L48.7085 15.9506C48.742 16.0217 48.7607 16.0989 48.7638 16.1775C48.7668 16.256 48.754 16.3344 48.7261 16.4079C48.6982 16.4814 48.6559 16.5486 48.6015 16.6054C48.5472 16.6623 48.482 16.7076 48.4098 16.7387Z" fill="#1E1E1E"/>
</g>
<defs>
<clipPath id="clip0_610_100">
<rect width="40" height="40" fill="white" transform="translate(10 10)"/>
</clipPath>
</defs>
</svg>
